<?xml version="1.0" standalone="no"?>
<!DOCTYPE svg PUBLIC "-//W3C//DTD SVG 20010904//EN"
 "http://www.w3.org/TR/2001/REC-SVG-20010904/DTD/svg10.dtd">
<svg version="1.0" xmlns="http://www.w3.org/2000/svg"
 width="2792.000000pt" height="2792.000000pt" viewBox="0 0 2792.000000 2792.000000"
 preserveAspectRatio="xMidYMid meet">
<metadata>
Created by potrace 1.14, written by Peter Selinger 2001-2017
</metadata>
<g transform="translate(0.000000,2792.000000) scale(0.100000,-0.100000)"
fill="#000000" stroke="none">
<path d="M22105 17968 c-81 -18 -172 -106 -196 -191 -19 -64 -19 -67 -20 -142
-2 -127 28 -204 148 -380 45 -66 117 -172 160 -235 43 -63 151 -223 241 -354
173 -253 174 -255 102 -257 -19 0 -44 -2 -55 -4 -11 -3 -40 -7 -65 -10 -25 -3
-76 -9 -115 -14 -41 -5 -77 -5 -88 1 -9 5 -32 39 -51 76 -42 84 -83 127 -149
158 -46 21 -64 23 -165 21 -62 -2 -117 0 -123 4 -6 3 -28 69 -49 147 -21 77
-44 149 -51 160 -29 47 -100 66 -161 43 -16 -6 -105 -117 -249 -311 -123 -165
-295 -396 -382 -513 -86 -117 -163 -219 -170 -227 -7 -8 -23 -31 -37 -50 -13
-19 -30 -41 -37 -48 -7 -7 -13 -17 -13 -21 0 -4 -8 -16 -18 -27 -9 -10 -47
-60 -84 -110 -104 -140 -194 -220 -331 -293 -69 -37 -78 -40 -83 -24 -37 114
-129 228 -219 273 -61 30 -197 164 -327 321 -184 222 -307 304 -544 363 -359
90 -622 30 -860 -197 -40 -37 -82 -83 -95 -102 l-24 -34 -85 0 c-103 1 -142
-6 -197 -32 -52 -25 -79 -58 -94 -113 -21 -77 3 -160 67 -226 l33 -35 -60 -75
c-142 -177 -364 -374 -475 -421 -16 -7 -36 -18 -44 -25 -18 -14 -161 -66 -167
-60 -2 2 10 24 27 50 17 25 43 74 57 108 21 53 24 73 20 125 -8 78 -22 105
-102 194 -44 49 -72 92 -90 137 -15 36 -35 78 -45 92 -10 14 -99 84 -198 155
-176 126 -183 133 -242 221 -64 96 -98 132 -152 160 -66 34 -174 12 -212 -45
-19 -27 -21 -28 -60 -16 -100 30 -186 -24 -202 -126 -10 -64 -28 -99 -73 -146
-23 -24 -43 -43 -45 -43 -1 0 -2 33 -1 74 2 109 -18 289 -38 334 -26 59 -136
132 -199 132 -28 0 -82 21 -360 139 -92 39 -172 71 -177 71 -19 0 -31 30 -36
91 -3 35 -10 80 -16 99 -11 35 -61 106 -114 165 -42 46 -64 101 -55 138 11 50
3 178 -15 227 -9 25 -29 62 -45 82 -17 20 -62 102 -102 182 -43 88 -79 148
-89 151 -32 10 -56 -13 -103 -99 -42 -77 -49 -84 -68 -77 -12 4 -36 5 -53 2
-59 -13 -67 -8 -122 69 -30 41 -57 81 -62 88 -11 19 -57 24 -73 8 -7 -7 -51
-63 -98 -124 l-85 -111 -65 -10 c-36 -6 -92 -13 -125 -16 -132 -10 -204 -15
-280 -20 -171 -13 -188 -18 -224 -71 -20 -29 -26 -53 -32 -139 -4 -57 -10
-109 -14 -115 -3 -5 -19 -10 -34 -10 -38 0 -334 -98 -389 -129 -33 -18 -54
-71 -43 -107 5 -16 25 -64 45 -108 22 -46 34 -86 31 -97 -8 -26 -79 -65 -140
-79 -99 -22 -212 -107 -276 -208 -35 -55 -36 -79 -8 -158 24 -69 22 -182 -6
-272 -15 -50 -19 -54 -73 -79 -78 -35 -80 -36 -58 -21 63 43 76 60 76 97 0 48
-19 65 -137 126 -51 25 -95 50 -97 53 -2 4 2 39 9 77 46 242 48 252 34 281
-20 42 -69 63 -122 53 -23 -4 -61 -10 -82 -13 -90 -12 -118 -17 -124 -21 -12
-7 -26 9 -94 107 -65 94 -77 104 -133 112 -37 6 -70 -15 -159 -103 l-90 -88
-115 39 c-169 58 -229 47 -280 -52 -24 -48 -32 -90 -32 -175 l0 -73 -46 -12
c-63 -15 -145 -66 -167 -103 -69 -116 58 -277 260 -328 25 -6 45 -14 45 -16 0
-3 -26 -48 -57 -101 -32 -54 -66 -113 -77 -132 -10 -19 -43 -75 -72 -124 -30
-49 -54 -92 -54 -96 0 -3 -5 -11 -12 -18 -9 -9 -17 0 -36 41 -25 54 -95 157
-147 217 -98 111 -133 149 -270 286 -82 82 -170 166 -195 186 -59 46 -148 91
-239 118 -63 20 -137 65 -149 92 -4 8 -129 98 -232 165 -97 65 -136 56 -184
-42 -14 -27 -25 -45 -25 -38 -1 15 -144 110 -231 153 -36 18 -114 53 -175 77
-125 50 -164 53 -179 11 -9 -25 -2 -34 106 -140 105 -102 278 -317 278 -344 0
-6 -29 -13 -69 -17 -130 -11 -231 -83 -245 -176 -4 -32 1 -40 69 -110 l73 -76
-105 -131 -105 -132 -68 102 c-107 157 -152 202 -235 231 -74 26 -67 19 -230
200 -44 49 -89 99 -100 111 -52 57 -214 238 -260 291 -5 6 -39 41 -74 77 -71
73 -135 104 -218 108 -46 1 -51 5 -163 114 -201 196 -218 211 -248 222 -17 6
-32 9 -34 8 -1 -2 -15 -6 -29 -9 -22 -6 -38 3 -95 49 -155 127 -213 166 -238
160 -14 -3 -32 -14 -41 -23 -17 -17 -17 -35 1 -165 6 -44 5 -48 -19 -59 -20
-9 -35 -7 -82 10 -93 35 -168 13 -263 -79 -57 -55 -59 -87 -12 -201 17 -39 30
-84 30 -98 0 -32 -26 -72 -43 -66 -6 2 -29 7 -51 10 -21 3 -42 8 -47 11 -27
17 -104 13 -166 -9 -70 -24 -77 -25 -128 -2 -16 7 -120 52 -230 100 -221 96
-275 120 -322 142 -44 20 -53 52 -49 168 7 166 20 548 19 587 0 79 -53 138
-124 138 -21 0 -97 -31 -216 -90 l-183 -90 -174 0 c-175 0 -213 -6 -256 -42
-8 -7 -69 -76 -134 -153 -65 -77 -124 -144 -130 -150 -6 -5 -28 -31 -49 -57
-21 -26 -45 -55 -54 -63 -8 -9 -31 -35 -50 -58 -59 -71 -146 -170 -184 -209
-33 -34 -42 -38 -90 -38 -30 -1 -91 -2 -136 -4 -97 -3 -101 -5 -251 -145 -103
-96 -115 -117 -84 -153 7 -9 23 -15 34 -13 22 5 32 12 140 115 108 101 105
100 241 100 76 0 129 5 150 14 34 14 81 63 242 251 33 38 65 75 70 81 6 6 71
82 145 169 74 87 154 179 177 204 l41 46 199 6 198 5 174 88 c190 97 207 99
205 35 -1 -19 -5 -133 -9 -254 -15 -481 -16 -446 6 -492 32 -65 11 -55 556
-292 78 -33 156 -62 175 -64 31 -3 111 17 133 33 21 16 197 -17 240 -45 18
-11 34 -52 49 -130 3 -11 17 -69 31 -129 15 -60 28 -116 30 -125 2 -9 8 -36
15 -60 17 -63 6 -88 -69 -161 -122 -117 -434 -416 -522 -499 -48 -45 -89 -91
-92 -101 -7 -26 20 -60 46 -60 14 0 49 25 92 67 39 36 156 148 260 248 105
100 229 219 277 264 85 81 118 132 118 184 0 22 -51 251 -95 425 -13 51 -33
106 -45 122 l-20 29 20 33 c30 49 26 109 -14 206 l-34 82 36 35 c62 58 81 62
166 33 41 -14 84 -24 98 -21 30 6 104 72 116 103 5 14 5 41 0 63 -5 22 -7 41
-5 43 2 2 52 -34 112 -82 l108 -85 48 6 49 7 59 -59 c107 -106 256 -248 273
-261 9 -7 43 -15 75 -18 110 -9 123 -18 288 -204 32 -36 72 -81 89 -100 47
-52 219 -243 231 -256 5 -6 42 -46 80 -88 65 -72 134 -125 170 -130 8 -1 18
-5 21 -9 4 -4 15 -7 25 -7 33 0 219 -253 219 -298 0 -13 -11 -63 -26 -111 -25
-85 -26 -87 -116 -173 -49 -47 -112 -98 -139 -113 -42 -22 -177 -58 -309 -80
-19 -3 -69 -13 -110 -21 -41 -9 -82 -17 -91 -19 -9 -2 -32 -6 -50 -9 -48 -8
-78 -14 -97 -20 -10 -3 -33 -8 -51 -10 -57 -6 -81 -61 -40 -90 18 -12 38 -13
84 -2 11 3 80 17 105 21 16 3 420 83 455 91 63 13 81 18 121 35 60 27 125 78
221 174 76 76 83 87 103 156 20 70 32 88 182 274 88 110 163 209 168 220 11
27 2 40 -79 120 -39 38 -71 73 -71 78 0 14 50 51 87 64 41 15 99 18 183 9 36
-4 71 -3 79 2 21 15 16 59 -13 102 -14 22 -26 44 -26 50 0 5 -4 10 -10 10 -5
0 -10 4 -10 10 0 13 -68 111 -131 189 -28 35 -48 65 -46 68 9 9 150 -73 211
-123 35 -29 68 -66 76 -83 8 -19 22 -34 38 -38 47 -11 62 11 76 117 12 81 14
81 127 4 56 -38 132 -96 169 -130 55 -48 81 -64 131 -78 86 -24 196 -76 244
-117 57 -47 318 -310 395 -398 81 -91 145 -175 169 -221 31 -58 57 -161 60
-230 3 -87 -34 -164 -94 -194 -41 -22 -59 -23 -285 -17 -41 1 -86 -1 -100 -4
-14 -3 -36 -8 -50 -11 -140 -27 -309 -131 -326 -200 -7 -28 19 -64 46 -64 10
0 33 17 51 38 42 47 89 76 165 103 95 33 178 47 241 41 32 -3 99 -6 148 -6 77
1 98 5 147 28 97 46 145 126 155 259 l6 78 174 296 c95 163 175 306 177 317 5
31 -13 73 -37 89 -12 7 -44 20 -72 27 -71 19 -129 46 -165 76 -30 26 -60 72
-60 93 0 23 83 70 153 86 95 22 100 26 91 94 -16 126 -4 200 36 233 20 16 27
15 151 -28 71 -24 138 -44 149 -44 11 0 59 39 112 91 51 49 100 94 109 99 13
7 29 -10 83 -89 84 -123 102 -133 201 -117 22 4 54 9 70 11 17 2 52 7 79 10
l49 7 -7 -28 c-21 -82 -53 -269 -52 -306 l1 -42 100 -53 c55 -29 105 -54 110
-57 14 -5 -17 -27 -98 -73 -127 -69 -169 -127 -147 -202 4 -16 54 -90 110
-164 84 -113 100 -139 91 -154 -5 -11 -49 -57 -97 -104 -48 -46 -111 -107
-141 -136 -97 -95 -95 -137 7 -218 38 -31 83 -75 99 -99 17 -24 36 -46 43 -48
15 -6 58 8 59 19 0 4 2 16 4 26 5 27 -53 105 -121 163 l-61 51 41 37 c199 181
277 274 270 324 -1 6 -2 18 -3 26 0 8 -9 22 -18 32 -10 10 -16 18 -14 18 3 1
-1 35 -7 76 -22 141 -23 150 -17 169 3 11 48 38 120 72 111 52 115 55 135 100
50 118 62 288 25 376 -23 56 -16 77 43 139 58 60 118 97 186 113 95 23 178 83
205 148 12 30 10 38 -37 142 l-50 110 41 16 c83 34 277 94 315 99 89 10 120
59 128 199 8 120 11 124 134 132 52 3 120 8 150 10 30 2 89 7 130 10 97 8 134
12 231 30 33 6 60 31 125 117 36 48 69 88 72 88 4 -1 32 -36 62 -80 57 -81 75
-94 105 -77 37 20 83 25 104 10 53 -37 77 -24 125 66 l34 64 55 -109 c30 -60
64 -118 76 -128 36 -32 51 -105 45 -216 -7 -121 4 -149 98 -265 73 -90 78
-100 84 -170 8 -88 14 -116 29 -138 18 -26 550 -254 609 -262 62 -9 123 -40
139 -72 18 -35 29 -117 32 -248 6 -171 -18 -237 -104 -289 -105 -64 -296 -64
-456 0 -34 13 -72 22 -85 19 -14 -3 -36 -7 -50 -10 -14 -3 -36 -8 -50 -11 -14
-3 -36 -7 -50 -10 -164 -32 -287 -61 -340 -82 -82 -31 -173 -37 -262 -15 -99
24 -104 18 -103 -133 1 -102 3 -118 20 -130 23 -17 36 -18 59 -1 13 10 18 29
19 83 l1 71 96 0 c106 0 122 2 200 32 48 18 127 39 210 55 14 3 61 12 104 21
107 21 139 27 151 28 6 1 42 -9 80 -22 39 -13 88 -25 110 -28 22 -3 45 -8 52
-12 6 -3 -33 -28 -88 -56 -105 -52 -122 -72 -99 -114 6 -12 20 -21 31 -21 19
0 238 109 439 218 99 53 185 118 283 211 95 91 135 154 142 224 9 82 70 96
133 31 18 -19 42 -34 52 -34 27 0 50 28 48 58 -3 48 11 71 49 81 60 17 94 -9
177 -134 61 -93 88 -120 182 -185 43 -30 84 -58 89 -62 6 -4 46 -34 91 -66 69
-51 83 -66 98 -108 29 -77 65 -135 119 -188 54 -54 79 -102 79 -153 0 -78
-144 -294 -195 -292 -31 2 -123 -10 -182 -22 -27 -6 -61 -13 -75 -15 -53 -10
-231 -74 -298 -107 -135 -67 -262 -162 -262 -196 1 -26 25 -51 51 -51 13 0 38
13 54 28 102 95 298 187 493 233 86 20 122 25 227 34 261 21 454 106 676 297
94 81 118 104 201 199 53 60 157 197 159 209 0 3 2 13 4 23 2 10 -7 25 -21 35
-71 50 -104 99 -104 152 0 79 53 103 223 102 l107 0 27 36 c109 146 254 255
409 308 210 71 566 9 758 -131 87 -64 101 -78 217 -216 142 -170 266 -291 339
-330 73 -38 123 -92 159 -168 23 -49 26 -68 25 -151 -1 -73 -6 -108 -23 -150
-62 -155 -134 -264 -191 -292 -19 -9 -62 -19 -95 -22 -75 -7 -116 -19 -168
-50 -57 -33 -89 -70 -89 -102 0 -49 54 -60 93 -18 36 38 90 63 156 70 173 19
234 66 331 260 52 102 82 192 86 257 l3 52 93 48 c188 96 255 159 451 422 83
110 158 210 167 222 9 12 24 32 34 45 109 152 674 906 685 915 28 22 41 1 73
-115 17 -64 38 -136 46 -159 19 -53 69 -87 128 -85 22 0 75 1 118 2 116 2 154
-22 211 -135 19 -38 46 -80 58 -92 21 -19 102 -46 111 -38 2 2 32 6 68 10 36
3 76 8 90 11 14 2 45 6 70 9 25 2 68 7 95 11 57 8 62 9 170 18 44 4 85 3 91
-1 6 -4 30 -36 52 -69 38 -56 42 -67 42 -123 0 -65 4 -55 -141 -329 -40 -75
-91 -131 -140 -155 -34 -15 -59 -23 -204 -62 -82 -22 -128 -54 -153 -107 -26
-56 -36 -64 -97 -72 -160 -22 -361 -99 -410 -157 -32 -39 -30 -78 4 -96 29
-14 51 -5 69 29 7 13 27 30 43 37 103 46 234 83 338 95 57 7 100 41 131 102
22 44 31 51 78 67 30 9 61 19 70 21 44 8 142 41 182 61 75 38 121 90 182 205
19 36 59 109 88 163 43 80 53 111 57 161 7 82 -15 154 -70 231 -57 79 -100
104 -181 100 l-61 -3 -62 91 c-59 87 -137 203 -332 487 -329 482 -333 490
-334 615 0 90 16 146 55 191 44 50 83 64 181 65 149 1 486 -115 643 -221 25
-16 48 -30 51 -30 3 0 28 -17 57 -37 28 -21 56 -41 61 -45 22 -16 192 -164
215 -188 52 -54 156 -170 177 -197 12 -15 29 -37 38 -48 96 -121 211 -308 310
-502 101 -201 102 -202 565 -461 19 -10 94 -53 165 -94 301 -173 454 -258 517
-288 57 -28 71 -40 89 -76 46 -95 12 -288 -71 -409 -36 -52 -116 -115 -177
-138 -24 -9 -75 -19 -114 -22 -78 -5 -99 -16 -99 -49 0 -37 16 -48 66 -51 145
-6 306 73 397 195 76 103 123 262 114 390 -9 130 -52 196 -164 250 -38 17
-153 81 -258 140 -240 137 -225 128 -530 300 -169 95 -274 161 -305 191 -35
33 -65 79 -108 165 -188 378 -426 687 -709 922 -321 268 -795 444 -1048 390z
m-10175 -2183 c-19 -20 -24 -37 -25 -75 0 -53 -13 -53 -41 2 -18 35 -10 49 45
78 47 25 49 25 21 -5z"/>
<path d="M4348 14595 c-2 -1 -30 -5 -63 -8 -282 -28 -573 -228 -781 -535 -245
-362 -338 -852 -242 -1267 107 -462 400 -836 813 -1040 173 -85 289 -121 515
-160 77 -14 375 -14 450 0 41 7 91 16 110 20 119 20 324 105 440 181 71 46
104 84 125 144 12 35 12 42 -1 55 -26 25 -52 15 -119 -45 -81 -74 -207 -144
-319 -179 -112 -35 -164 -42 -321 -45 -725 -16 -1366 532 -1521 1299 -19 95
-26 344 -12 440 4 28 10 68 14 90 3 22 17 80 31 129 117 410 395 707 755 803
91 24 285 24 358 0 162 -54 196 -159 141 -427 -21 -101 -25 -141 -18 -157 14
-31 48 -29 80 3 30 30 48 27 74 -13 63 -100 192 -210 319 -270 224 -107 320
-3 251 272 -82 331 -420 615 -821 690 -69 13 -250 27 -258 20z m683 -379 c146
-146 289 -357 289 -427 0 -26 -3 -29 -33 -29 -69 0 -158 79 -252 223 -81 126
-182 336 -168 351 13 12 89 -42 164 -118z"/>
<path d="M12472 14550 c-342 -61 -577 -227 -715 -505 -85 -171 -126 -385 -103
-535 2 -14 7 -47 11 -75 18 -124 93 -328 181 -495 49 -92 66 -110 100 -110 27
0 64 44 59 70 -2 10 -26 56 -54 102 -48 79 -86 168 -116 266 -7 23 -11 42 -9
42 2 0 -1 11 -6 25 -24 63 -34 316 -17 440 10 70 47 185 81 254 102 199 297
336 561 391 68 14 279 18 370 6 499 -63 1001 -423 1230 -885 65 -130 96 -239
102 -356 6 -116 -6 -193 -43 -276 -96 -213 -391 -271 -653 -128 -30 17 -67 40
-83 52 l-28 22 6 205 c3 113 7 243 9 290 2 47 7 175 10 285 4 110 8 249 10
309 4 117 -4 149 -33 139 -35 -12 -53 -38 -72 -102 -31 -103 -32 -119 -36
-585 -2 -241 -5 -441 -8 -443 -5 -6 -115 118 -181 206 -141 187 -225 397 -163
409 30 6 76 -36 159 -144 44 -57 85 -107 91 -110 14 -9 5 86 -13 136 -40 113
-192 250 -276 250 -37 0 -79 -26 -91 -57 -62 -160 57 -402 347 -703 155 -161
148 -142 157 -415 12 -397 10 -430 -24 -509 -44 -98 -120 -152 -202 -143 -112
12 -236 97 -410 281 -242 255 -338 337 -427 367 -47 15 -140 5 -171 -18 -48
-36 -64 -80 -59 -161 6 -76 32 -147 56 -147 14 0 22 19 35 77 7 33 39 52 72
44 29 -8 110 -75 229 -191 263 -256 390 -359 515 -419 57 -27 75 -31 145 -30
87 0 131 17 191 71 63 57 117 175 145 318 14 71 19 392 8 526 -7 79 3 114 29
104 59 -25 203 -74 232 -80 375 -71 692 192 706 585 5 150 -30 293 -115 476
-37 78 -137 244 -176 293 -173 213 -366 362 -599 463 -85 37 -254 90 -327 102
-19 3 -46 8 -61 11 -72 14 -106 16 -283 19 -152 3 -211 0 -293 -14z"/>
<path d="M6195 14493 c-43 -23 -72 -51 -101 -101 -24 -41 -66 -188 -79 -277
-3 -23 -7 -52 -10 -65 -3 -14 -7 -49 -11 -78 -3 -29 -7 -61 -9 -70 -1 -9 -6
-51 -10 -92 -4 -41 -8 -91 -10 -110 -5 -45 -15 -185 -20 -275 -28 -458 -25
-1506 4 -1604 13 -44 48 -81 77 -81 26 0 78 55 100 108 35 83 70 220 124 487
19 92 37 154 50 168 11 12 26 -12 101 -160 163 -320 324 -498 522 -577 120
-48 249 -58 376 -30 151 34 260 141 209 206 -25 30 -47 28 -125 -14 -75 -40
-81 -42 -168 -41 -106 0 -174 22 -275 88 -149 98 -268 258 -438 585 -127 245
-153 283 -193 276 -75 -13 -85 -34 -114 -231 -5 -32 -42 -218 -91 -455 -11
-55 -33 -132 -39 -138 -20 -20 -24 46 -20 288 8 408 11 453 41 519 128 278
266 698 320 971 19 98 27 353 13 450 -23 168 -83 270 -157 270 -20 -1 -50 -8
-67 -17z m50 -294 c17 -29 20 -54 22 -169 0 -74 -3 -162 -8 -195 -35 -222 -55
-330 -90 -475 -40 -166 -94 -346 -108 -354 -4 -3 -6 30 -5 72 2 88 15 387 19
447 12 171 22 281 30 345 13 101 17 130 30 220 7 47 30 134 40 150 10 17 49
-6 70 -41z"/>
<path d="M7614 14254 c-21 -15 -45 -34 -52 -43 -73 -90 -131 -240 -172 -445
-13 -63 -14 -71 -24 -151 -4 -27 -9 -61 -11 -75 -27 -174 -27 -701 0 -841 2
-9 7 -39 11 -66 3 -26 8 -57 11 -68 2 -11 8 -42 13 -70 27 -139 95 -321 164
-440 54 -93 155 -194 231 -230 49 -23 74 -29 135 -29 115 -1 184 36 325 178
61 61 135 145 165 186 l55 75 21 -86 c29 -113 65 -185 124 -247 82 -86 175
-118 314 -109 135 8 231 55 357 175 l67 62 105 -3 c239 -8 444 42 608 148 l66
43 7 -71 c28 -303 178 -440 475 -432 120 3 140 6 222 40 165 67 392 279 622
581 67 89 75 110 51 134 -19 18 -34 23 -65 21 -9 0 -40 -38 -69 -83 -29 -46
-90 -128 -135 -183 -237 -290 -476 -398 -726 -329 -57 16 -129 65 -129 87 0 7
37 50 81 96 190 198 322 392 358 526 30 110 -2 186 -98 234 -65 34 -147 31
-231 -7 -113 -51 -251 -215 -311 -370 -13 -35 -40 -79 -59 -99 -91 -93 -286
-184 -465 -218 -47 -9 -235 -19 -235 -12 0 3 16 32 35 65 75 128 108 291 86
417 -18 102 -21 115 -46 178 -48 120 -140 210 -247 242 -31 9 -80 13 -133 12
-70 -3 -94 -8 -148 -35 -83 -41 -165 -128 -207 -220 -51 -111 -54 -115 -85
-124 -52 -13 -82 -49 -269 -328 -167 -248 -260 -336 -369 -347 -127 -13 -278
115 -381 323 -39 81 -73 196 -70 241 1 17 20 73 42 125 133 312 215 594 249
863 10 77 10 352 0 430 -31 249 -139 363 -263 279z m68 -244 c38 -76 43 -118
43 -335 0 -196 -10 -337 -31 -455 -3 -19 -8 -46 -10 -60 -26 -144 -103 -380
-125 -380 -38 0 -63 229 -63 590 0 169 10 364 19 380 2 3 6 25 9 50 13 93 26
140 62 212 38 75 58 74 96 -2z m1518 -1112 c97 -30 173 -127 205 -260 38 -161
-6 -389 -89 -467 -24 -23 -28 -23 -73 -11 -164 44 -315 197 -362 365 -19 69
-25 179 -11 221 45 137 179 199 330 152z m1384 -189 c70 -32 51 -177 -46 -339
-45 -74 -71 -107 -166 -203 -63 -64 -67 -66 -75 -45 -13 35 -12 146 2 213 7
33 14 71 17 84 11 55 64 173 98 219 52 72 112 97 170 71z m-1874 -182 c0 -61
90 -230 167 -314 68 -74 183 -132 296 -148 30 -4 47 -11 44 -18 -8 -24 -84
-67 -146 -83 -153 -38 -318 26 -384 150 -78 149 -87 346 -19 427 26 31 42 26
42 -14z"/>
<path d="M23914 13935 c-70 -29 -116 -137 -154 -360 -28 -167 -48 -246 -67
-267 -9 -10 -63 -28 -132 -44 -443 -101 -619 -153 -655 -193 -25 -28 -17 -64
17 -75 23 -8 80 3 305 59 321 80 278 70 370 90 40 8 78 13 84 9 9 -6 6 -66 -7
-134 -2 -14 -10 -70 -20 -160 -9 -73 -16 -165 -20 -259 -3 -81 -8 -104 -30
-143 -28 -51 -99 -123 -160 -165 -67 -46 -204 -104 -303 -129 -99 -25 -318
-45 -311 -28 3 5 26 51 51 102 61 121 83 217 74 327 -3 46 -10 95 -16 109 -5
14 -7 26 -5 26 3 0 -7 30 -20 67 -49 130 -112 204 -215 252 -48 22 -68 26
-155 26 -93 0 -105 -2 -165 -32 -105 -52 -178 -135 -227 -256 -30 -74 -39 -87
-64 -87 -28 0 -99 -69 -138 -135 -79 -131 -93 -258 -47 -418 43 -147 119 -245
226 -296 49 -23 67 -26 165 -26 80 0 124 5 162 18 71 25 186 102 251 169 l53
54 51 -6 c81 -11 244 -1 346 20 175 37 324 113 430 221 30 31 52 47 53 39 3
-40 9 -77 20 -128 7 -32 13 -61 15 -67 34 -167 146 -345 240 -381 76 -29 235
-2 344 59 116 64 289 220 424 382 32 39 65 79 75 90 48 58 112 146 122 169 11
23 10 29 -7 45 -10 11 -29 22 -42 26 -26 7 -26 7 -138 -143 -68 -93 -229 -265
-309 -332 -144 -121 -288 -170 -373 -126 -63 33 -117 118 -147 235 -32 125
-40 223 -40 471 0 210 6 273 36 420 30 144 47 189 72 195 12 3 87 21 167 41
80 20 153 37 163 39 10 2 27 7 37 10 10 3 27 7 37 9 10 2 129 31 265 65 254
62 319 88 333 131 4 14 1 28 -10 40 -37 41 -224 12 -615 -96 -52 -14 -148 -40
-213 -56 -153 -40 -152 -40 -127 97 27 151 31 183 35 274 7 129 -26 184 -91
156z m-1278 -1049 c121 -55 194 -200 194 -386 0 -129 -51 -286 -108 -331 -32
-25 -62 -20 -160 28 -99 47 -180 130 -232 238 -43 88 -48 107 -56 210 -6 80
12 142 58 194 70 78 194 97 304 47z m-516 -368 c36 -153 153 -319 274 -389 43
-24 68 -34 136 -54 3 -1 26 -5 53 -9 26 -5 47 -12 47 -17 0 -17 -72 -62 -129
-79 -41 -13 -81 -18 -128 -15 -113 6 -173 33 -240 109 -105 120 -136 382 -56
477 14 16 26 29 28 29 2 0 9 -24 15 -52z"/>
<path d="M18256 13394 c-92 -87 -70 -261 36 -278 80 -13 160 122 129 217 -16
47 -52 78 -98 83 -31 5 -43 1 -67 -22z"/>
<path d="M10867 13386 c-122 -50 -257 -160 -401 -326 -55 -64 -70 -100 -41
-100 8 0 72 36 143 81 147 93 247 143 317 159 115 27 120 29 139 61 10 17 19
49 20 71 2 76 -69 98 -177 54z"/>
<path d="M19275 12949 c-171 -59 -336 -233 -427 -451 -57 -136 -73 -215 -72
-363 0 -114 4 -139 28 -209 34 -99 75 -185 148 -309 32 -54 58 -103 58 -108 0
-6 -32 -47 -71 -92 -159 -183 -247 -339 -287 -512 -3 -16 -6 -95 -5 -175 1
-113 6 -163 22 -225 57 -219 178 -357 364 -420 255 -85 478 38 580 321 49 138
62 250 41 368 -32 180 -133 396 -301 650 l-94 141 68 65 c38 36 112 103 164
150 216 193 466 465 580 632 43 62 104 118 131 118 35 0 39 -34 42 -363 3
-338 4 -353 50 -404 25 -29 57 -29 84 0 19 20 372 728 372 747 0 11 29 34 36
28 2 -3 7 -30 10 -59 6 -68 40 -234 53 -257 5 -9 10 -21 11 -27 11 -49 65
-158 111 -227 79 -116 171 -191 294 -238 83 -32 245 -36 370 -10 92 20 226 79
277 122 34 29 43 61 24 81 -14 13 -23 11 -86 -19 -268 -130 -545 -43 -724 229
-82 125 -122 226 -186 462 -43 158 -81 235 -116 235 -23 0 -62 -52 -108 -143
-25 -51 -46 -95 -46 -99 0 -3 -43 -96 -96 -205 -53 -109 -109 -226 -125 -260
-26 -56 -44 -81 -54 -71 -2 2 -6 89 -10 193 -10 348 -19 415 -62 473 -62 83
-147 58 -250 -73 -17 -22 -67 -101 -112 -174 -45 -74 -107 -166 -139 -205
-106 -132 -377 -393 -507 -488 -5 -4 -23 -18 -40 -31 -16 -13 -45 -32 -63 -43
l-33 -19 -17 23 c-23 30 -87 156 -111 217 l-19 51 66 34 c36 19 101 60 143 91
264 196 419 433 419 640 0 95 -37 155 -125 201 -58 31 -180 34 -260 7z m95
-164 c50 -26 90 -95 90 -155 0 -45 -35 -137 -75 -197 -65 -97 -222 -241 -336
-307 -54 -31 -59 -28 -83 52 -44 150 25 400 149 535 77 84 177 112 255 72z
m-207 -1460 c181 -262 300 -544 314 -747 9 -124 -30 -262 -89 -319 -63 -59
-168 -73 -254 -33 -50 23 -152 124 -196 194 -120 192 -156 414 -94 593 60 176
200 392 250 385 13 -2 40 -30 69 -73z"/>
<path d="M16030 12934 c-105 -20 -252 -85 -367 -160 -174 -116 -316 -276 -373
-424 -37 -95 -231 -299 -361 -379 -133 -82 -260 -109 -404 -87 -83 13 -185 74
-174 104 2 5 45 54 95 108 196 212 306 375 343 509 26 94 2 172 -66 217 -189
125 -466 -61 -589 -397 -25 -70 -29 -93 -29 -190 0 -60 3 -133 7 -161 21 -142
97 -257 206 -313 101 -51 288 -65 416 -29 59 16 171 69 211 99 62 49 163 140
217 197 37 40 71 72 76 72 4 0 9 -11 10 -24 3 -44 43 -137 73 -171 130 -148
454 -95 684 113 26 23 51 42 55 42 16 0 21 -38 15 -109 -3 -39 -7 -104 -10
-143 -15 -218 -33 -469 -40 -548 -11 -121 -15 -176 -21 -310 -3 -80 -7 -158
-7 -175 -2 -54 12 -110 36 -139 19 -24 28 -28 50 -22 28 7 55 39 61 73 9 45
101 392 153 573 50 177 128 391 205 559 43 94 168 345 177 354 5 4 11 -23 14
-62 19 -202 105 -311 234 -298 117 12 269 133 377 300 32 48 61 85 65 82 5 -2
11 -26 15 -52 16 -123 31 -174 68 -246 69 -128 211 -169 381 -109 114 41 266
165 366 301 22 29 43 56 47 60 3 3 4 -61 2 -143 -3 -83 -2 -160 0 -173 9 -47
89 -37 115 14 28 53 49 391 51 790 1 161 0 173 -19 187 -44 33 -129 10 -157
-42 -14 -27 -17 -173 -6 -344 3 -53 2 -100 -3 -105 -4 -4 -20 -30 -34 -58
-156 -296 -398 -421 -527 -272 -33 39 -77 134 -99 214 -28 98 -33 307 -11 387
24 86 25 101 7 116 -24 20 -75 17 -88 -6 -7 -10 -41 -91 -78 -179 -67 -163
-95 -219 -156 -312 -41 -63 -112 -130 -158 -149 -45 -18 -105 -18 -133 2 -46
32 -77 130 -75 239 1 55 39 262 64 349 12 39 26 88 32 109 13 45 3 67 -36 81
-20 8 -31 6 -45 -8 -18 -16 -64 -118 -112 -251 -12 -33 -25 -62 -29 -65 -30
-21 -129 -201 -303 -553 -64 -130 -166 -362 -183 -417 -4 -14 -13 -38 -20 -55
-8 -16 -23 -60 -34 -98 -24 -79 -38 -107 -52 -107 -10 0 -8 67 6 245 6 72 13
168 20 260 3 44 8 103 10 130 29 353 26 390 -33 397 -21 2 -32 -5 -52 -33 -80
-115 -214 -239 -308 -285 -90 -44 -216 -45 -261 -3 -28 26 -24 36 24 64 355
201 545 335 658 464 106 122 150 270 96 327 -43 46 -96 66 -184 69 -44 2 -91
1 -105 -1z m91 -155 c91 -64 9 -206 -208 -362 -159 -113 -432 -265 -453 -252
-15 9 -12 93 5 159 35 133 142 278 268 365 68 46 184 98 237 106 25 4 46 8 48
9 9 9 79 -8 103 -25z m-1567 -70 c67 -31 49 -177 -41 -331 -41 -70 -119 -166
-188 -230 l-50 -47 -11 36 c-14 47 -9 143 11 228 9 39 18 77 20 85 8 37 49
129 77 173 52 82 120 114 182 86z"/>
<path d="M4250 10855 l0 -25 5610 0 5610 0 0 25 0 25 -5610 0 -5610 0 0 -25z"/>
<path d="M16730 10830 c0 -20 7 -20 745 -20 738 0 745 0 745 20 0 20 -7 20
-745 20 -738 0 -745 0 -745 -20z"/>
<path d="M19910 10830 c0 -20 7 -20 2005 -20 1998 0 2005 0 2005 20 0 20 -7
20 -2005 20 -1998 0 -2005 0 -2005 -20z"/>
<path d="M7803 10096 c-74 -37 -103 -56 -103 -69 0 -10 3 -17 8 -15 191 93
244 127 207 133 -5 1 -56 -21 -112 -49z"/>
<path d="M4617 9905 c-276 -75 -433 -357 -348 -625 50 -157 183 -282 346 -325
257 -67 528 95 594 355 64 254 -78 503 -339 590 -52 17 -197 20 -253 5z m203
-29 c123 -21 269 -133 322 -247 83 -177 54 -366 -78 -509 -180 -193 -479 -193
-659 2 -92 99 -127 193 -120 327 4 90 12 120 56 201 73 138 248 240 399 235
19 -1 55 -5 80 -9z"/>
<path d="M5784 9909 c-82 -15 -159 -63 -198 -124 -28 -43 -31 -137 -6 -186 39
-75 111 -115 329 -184 136 -42 204 -78 240 -124 22 -29 26 -45 26 -101 0 -54
-5 -73 -24 -102 -94 -137 -343 -150 -515 -27 -31 22 -56 44 -56 49 0 5 -7 7
-15 4 -42 -17 4 -65 110 -118 155 -76 314 -75 438 3 67 43 102 108 102 191 0
125 -68 188 -269 250 -281 87 -343 131 -348 247 -5 144 207 237 407 179 54
-16 131 -58 147 -81 5 -6 13 -4 23 6 15 15 15 18 -12 36 -43 31 -103 60 -153
73 -56 15 -171 20 -226 9z"/>
<path d="M8787 9905 c-220 -60 -370 -252 -369 -475 0 -138 39 -235 136 -338
92 -98 228 -155 361 -151 356 11 583 376 431 694 -60 125 -171 224 -294 261
-72 21 -202 26 -265 9z m229 -36 c55 -11 150 -63 197 -107 194 -183 191 -490
-6 -668 -206 -186 -521 -147 -681 85 -64 91 -90 240 -62 351 24 95 53 147 121
216 69 70 118 98 218 124 73 18 120 18 213 -1z"/>
<path d="M6432 9882 c3 -15 25 -17 191 -18 103 -1 191 -5 194 -8 4 -3 6 -206
6 -451 -1 -429 -1 -445 17 -445 19 0 19 16 19 446 0 245 2 448 5 452 3 3 90 6
193 6 167 1 188 3 191 18 3 15 -29 16 -408 16 -378 0 -411 -1 -408 -16z"/>
<path d="M7539 9876 c-4 -76 -3 -900 1 -907 3 -4 143 -9 310 -10 293 -2 305
-1 305 17 0 18 -13 19 -280 20 -154 1 -285 2 -292 3 -9 1 -12 65 -12 260 l0
258 244 -1 c185 -1 246 2 249 11 3 7 0 15 -5 19 -6 3 -118 6 -250 5 l-239 -2
1 158 0 158 244 -2 c230 -1 243 0 248 17 5 18 -6 19 -259 18 -263 0 -264 0
-265 -22z"/>
<path d="M9779 9497 c0 -221 -1 -431 -2 -467 -1 -59 1 -65 20 -68 20 -3 21 0
19 87 -1 50 0 92 3 92 3 1 69 2 146 3 77 1 160 6 185 10 233 42 372 276 298
503 -24 72 -67 127 -135 172 -82 54 -128 63 -340 67 l-193 2 -1 -401z m364
359 c69 -10 168 -58 206 -101 63 -72 76 -110 76 -220 0 -89 -3 -106 -28 -156
-36 -74 -107 -140 -183 -169 -51 -21 -81 -24 -229 -28 l-170 -4 0 338 0 338
23 6 c31 7 241 4 305 -4z"/>
<path d="M11081 9818 c-21 -46 -72 -156 -114 -245 -42 -89 -90 -190 -106 -225
-16 -35 -57 -121 -90 -193 -34 -71 -68 -143 -76 -160 -13 -27 -12 -30 1 -33
23 -5 32 7 73 100 l37 83 324 0 324 0 41 -92 c33 -77 44 -93 63 -93 12 0 22 2
22 5 0 2 -26 59 -59 127 -32 68 -75 159 -96 203 -21 44 -58 123 -83 175 -51
109 -102 217 -160 343 -23 48 -46 87 -52 87 -6 0 -28 -37 -49 -82z m91 -71
c44 -95 126 -270 208 -444 l59 -123 -310 0 -309 0 28 58 c16 31 37 75 47 97
10 22 39 85 65 140 26 55 73 157 105 228 32 70 61 127 64 127 3 -1 23 -38 43
-83z"/>
<path d="M11644 9889 c-14 -23 18 -27 192 -25 102 0 188 -3 191 -7 3 -5 5
-209 4 -453 0 -435 0 -444 19 -444 20 0 20 9 20 450 l0 450 33 1 c17 1 105 1
195 1 152 -1 162 0 162 18 0 18 -16 18 -405 18 -228 0 -408 -4 -411 -9z"/>
<path d="M12750 9888 c0 -99 0 -906 0 -915 0 -7 8 -13 18 -13 17 0 18 15 18
278 l-1 277 320 0 320 0 -1 -278 c0 -270 0 -278 19 -275 19 3 20 14 20 466 -1
255 -3 466 -6 469 -4 3 -12 3 -20 0 -11 -4 -13 -39 -12 -176 l2 -171 -321 0
-322 0 1 172 c0 157 -2 173 -17 176 -10 2 -18 -2 -18 -10z"/>
<path d="M13919 9891 c-4 -22 -3 -915 1 -921 3 -5 143 -10 310 -11 294 -2 305
-1 305 17 0 18 -12 19 -280 20 -154 1 -285 2 -292 3 -9 1 -11 66 -10 259 l2
257 240 0 c139 -1 243 3 247 9 19 28 -7 31 -247 28 l-244 -3 2 157 2 157 242
0 c195 -1 243 2 247 13 3 7 1 16 -3 18 -12 8 -521 4 -522 -3z"/>
<path d="M15715 9784 c-30 -64 -55 -118 -55 -120 0 -1 -34 -73 -75 -159 -41
-86 -75 -157 -75 -159 0 -2 -34 -75 -75 -162 -42 -88 -81 -170 -87 -184 -7
-14 -14 -28 -16 -32 -2 -5 8 -8 22 -8 14 0 26 4 26 10 0 5 18 47 39 93 l39 83
322 -1 323 0 43 -93 c34 -72 47 -92 63 -92 12 0 21 2 21 4 0 2 -31 69 -68 148
-75 156 -110 231 -266 563 -57 120 -108 221 -114 223 -6 2 -36 -49 -67 -114z
m75 37 c0 -5 33 -78 73 -163 40 -84 89 -187 107 -228 19 -41 53 -113 76 -160
l41 -85 -153 -3 c-85 -1 -223 -1 -308 0 l-153 3 36 75 c20 41 72 152 115 245
131 284 151 325 159 325 4 0 7 -4 7 -9z"/>
<path d="M16549 9506 c0 -218 0 -425 0 -461 0 -36 0 -69 0 -75 1 -5 9 -10 19
-10 17 0 18 23 17 429 0 236 2 428 6 425 4 -2 152 -197 330 -434 178 -236 327
-426 332 -421 9 9 14 928 4 937 -3 4 -12 4 -19 1 -11 -4 -13 -88 -13 -431 1
-401 0 -426 -16 -409 -9 10 -155 203 -323 428 -169 226 -314 411 -322 413 -12
3 -14 -53 -15 -392z"/>
<path d="M17740 9896 c0 -3 0 -208 0 -456 0 -247 0 -457 0 -465 0 -8 8 -15 18
-15 17 0 18 26 17 467 0 437 -1 468 -17 471 -10 2 -18 1 -18 -2z"/>
<path d="M18426 9823 c-33 -102 -251 -743 -276 -810 -19 -52 -18 -60 9 -59 11
1 155 410 279 794 15 45 30 82 33 82 5 0 137 -212 162 -260 33 -65 115 -185
126 -185 8 0 21 12 30 27 19 33 207 340 236 385 11 18 22 32 25 33 3 0 13 -24
22 -52 9 -29 75 -226 147 -436 72 -211 131 -386 131 -388 0 -8 29 -4 34 5 4 5
1 22 -5 38 -13 33 -164 470 -215 623 -19 58 -39 114 -44 125 -5 11 -18 50 -30
88 -12 37 -27 67 -33 67 -7 0 -75 -104 -152 -230 -77 -126 -142 -230 -145
-230 -3 0 -48 70 -100 156 -52 86 -104 171 -115 189 -11 18 -31 51 -44 74 -14
22 -30 41 -37 41 -7 0 -24 -34 -38 -77z"/>
<path d="M20001 9818 c-81 -174 -181 -388 -240 -512 -34 -70 -61 -130 -61
-131 0 -2 -22 -50 -50 -107 -47 -97 -49 -103 -29 -106 11 -2 22 -2 23 0 1 2
20 44 42 93 l40 90 323 0 324 1 43 -93 c34 -73 47 -93 63 -93 12 0 21 2 21 4
0 4 -41 92 -150 321 -23 50 -60 126 -80 170 -21 44 -59 125 -85 180 -26 55
-65 137 -86 183 -21 45 -43 82 -49 82 -6 0 -28 -37 -49 -82z m203 -309 c82
-175 147 -322 144 -324 -3 -3 -140 -4 -305 -3 l-299 3 44 95 c70 148 196 419
227 488 16 34 31 62 34 62 3 -1 73 -145 155 -321z"/>
<path d="M20819 9883 c-2 -62 3 -918 5 -920 1 -2 131 -3 287 -4 269 -1 284 0
284 18 0 17 -14 18 -267 17 -182 0 -268 3 -269 10 -1 6 -2 209 -3 451 -1 410
-2 440 -19 443 -11 2 -17 -3 -18 -15z"/>
<path d="M21740 9881 c0 -12 0 -222 0 -468 0 -422 1 -448 17 -448 17 0 18 27
18 465 0 435 -1 465 -17 468 -13 2 -18 -3 -18 -17z"/>
<path d="M22248 9886 c-6 -18 -2 -915 3 -920 3 -3 142 -6 309 -7 292 -1 305
-1 308 17 3 19 -8 19 -290 19 l-293 0 0 260 0 260 242 0 c200 0 244 2 248 14
3 7 4 16 1 18 -2 2 -114 4 -248 3 l-245 -1 -1 156 c-1 153 0 155 21 156 12 1
122 1 244 1 209 0 221 1 226 19 5 18 -5 19 -259 17 -177 -1 -264 -5 -266 -12z"/>
<path d="M23240 9867 c-1 -54 -1 -881 -1 -894 1 -7 9 -13 20 -13 16 0 18 8 16
89 -2 75 1 90 14 93 32 8 237 0 262 -10 14 -6 57 -42 96 -81 77 -77 118 -100
185 -102 48 -2 108 9 108 19 -1 23 -18 34 -38 23 -29 -15 -85 -14 -129 4 -49
20 -190 160 -163 162 11 1 47 12 81 24 103 38 202 146 225 245 37 166 -15 315
-139 401 -82 56 -129 65 -344 69 l-193 3 0 -32z m390 -16 c102 -22 178 -76
226 -163 27 -49 29 -61 29 -153 0 -89 -3 -106 -28 -157 -35 -71 -110 -140
-185 -169 -51 -21 -75 -23 -227 -23 l-170 -1 0 337 c-1 292 1 338 14 340 37 7
295 -1 341 -11z"/>
</g>
</svg>
